<svg width="232" height="44" viewBox="0 0 232 44" fill="none" xmlns="http://www.w3.org/2000/svg">
<path d="M41.8308 4.18433C38.5099 2.89582 34.8865 2.59866 31.4 3.32891C27.9135 4.05916 24.7139 5.78544 22.1892 8.29833C19.6286 5.67774 16.3217 3.91106 12.7199 3.23935C9.11806 2.56765 5.3967 3.02365 2.06361 4.54513C1.71262 4.70234 1.41434 4.95732 1.20444 5.27958C0.994542 5.60185 0.881908 5.97774 0.880008 6.36233V36.4935C0.87869 36.788 0.948788 37.0784 1.08429 37.3399C1.2198 37.6013 1.41667 37.826 1.65805 37.9947C1.89942 38.1634 2.1781 38.2711 2.4702 38.3085C2.7623 38.3459 3.05911 38.312 3.33521 38.2095C5.99362 37.237 8.84553 36.9122 11.6545 37.2619C14.4636 37.6116 17.1488 38.6257 19.4876 40.2203C20.2975 40.7702 21.2543 41.0631 22.2332 41.0607C23.1897 41.0624 24.1252 40.7807 24.9216 40.2511C27.2215 38.7064 29.8406 37.7011 32.5834 37.3103C35.3261 36.9194 38.1218 37.1531 40.7616 37.9939C40.938 38.05 41.1221 38.0782 41.3072 38.0775C41.7904 38.0729 42.2521 37.8774 42.5917 37.5337C42.9313 37.19 43.1212 36.7259 43.12 36.2427V6.04113C43.1178 5.63764 42.9934 5.24428 42.7633 4.91284C42.5332 4.5814 42.2081 4.32741 41.8308 4.18433ZM19.36 13.5783V34.0779C15.252 32.1292 10.6607 31.4344 6.16001 32.0803V8.65913C8.31516 8.07305 10.5877 8.07319 12.7428 8.65953C14.8979 9.24587 16.8573 10.3971 18.4184 11.9943C18.7798 12.4285 19.0954 12.8989 19.36 13.3979C19.36 13.4595 19.36 13.5167 19.36 13.5783Z" fill="#EC5028"/>
<path d="M59.8636 22.1818C59.875 20.4545 60.875 19.4091 62.4091 19.4091C64.0114 19.4091 64.9205 20.4545 64.9091 22.1818V32H71.1818V20.8636C71.1932 17.0455 68.7841 14.3182 65.0909 14.3182C62.5114 14.3182 60.6023 15.6364 59.8182 17.8636H59.6364V8.72727H53.5909V32H59.8636V22.1818ZM79.142 32.2727C81.4148 32.2727 83.1307 31.5 84.1875 29.5455H84.3239V32H90.1875V20.0455C90.1875 16.8182 87.1307 14.3182 82.142 14.3182C76.9261 14.3182 74.358 17.0455 74.142 20.2273H79.9148C80.0625 19.1477 80.858 18.6364 82.0511 18.6364C83.142 18.6364 83.9148 19.1364 83.9148 20.0455V20.0909C83.9148 21.1023 82.8011 21.4205 79.8693 21.6364C76.267 21.8977 73.4602 23.3523 73.4602 27.1818C73.4602 30.6591 75.8011 32.2727 79.142 32.2727ZM81.1875 28.3182C80.1193 28.3182 79.3693 27.7955 79.3693 26.8182C79.3693 25.9205 80.0057 25.2273 81.4602 25C82.4602 24.8409 83.3011 24.6364 83.9602 24.3636V25.8182C83.9602 27.4091 82.608 28.3182 81.1875 28.3182ZM101.594 32.3182C106.764 32.3182 109.935 29.3523 110.003 24.7273H104.185C104.048 26.5568 103.06 27.5455 101.685 27.5455C100.037 27.5455 98.9574 26.1364 98.9574 23.2727C98.9574 20.4091 100.037 19 101.685 19C103.071 19 104.014 19.9886 104.185 21.8182H110.003C109.969 17.2727 106.73 14.3182 101.594 14.3182C95.9119 14.3182 92.5483 17.9545 92.5483 23.3182C92.5483 28.6818 95.9119 32.3182 101.594 32.3182ZM112.591 32H118.864V27.0455L119.807 25.8523L123.364 32H130.545L124.432 22.1932L130.364 14.5455H123.318L119.091 20.4091H118.864V8.72727H112.591V32ZM131.997 32H138.27V22.9091C138.27 20.9091 139.645 19.5909 141.497 19.5909C142.145 19.5909 143.19 19.6932 143.815 19.9091V14.5568C143.315 14.4091 142.77 14.3182 142.224 14.3182C140.361 14.3182 138.906 15.4091 138.27 17.8636H138.088V14.5455H131.997V32ZM152.145 22.1818C152.156 20.4545 153.134 19.4091 154.69 19.4091C156.27 19.4091 157.202 20.4545 157.19 22.1818V32H163.463V20.8636C163.474 17.0682 161.077 14.3182 157.372 14.3182C154.804 14.3182 152.77 15.6591 152.009 17.8636H151.827V14.5455H145.872V32H152.145V22.1818ZM174.923 32.3182C179.764 32.3182 182.878 30 183.469 26.3636H177.741C177.378 27.3523 176.344 27.9091 175.06 27.9091C173.196 27.9091 172.105 26.6818 172.105 25V24.7273H183.469V23.2727C183.469 17.7159 180.06 14.3182 174.787 14.3182C169.378 14.3182 165.923 17.9091 165.923 23.3182C165.923 28.9659 169.332 32.3182 174.923 32.3182ZM172.105 21.2727C172.139 19.7614 173.389 18.7273 174.923 18.7273C176.48 18.7273 177.662 19.7727 177.696 21.2727H172.105ZM188.901 32H195.673L198.128 22.6364H198.31L200.764 32H207.537L211.901 14.5455H205.628L203.719 25.0909H203.582L201.264 14.5455H195.173L192.946 25.1818H192.81L190.81 14.5455H184.537L188.901 32ZM229.764 20.2273C229.605 16.5341 226.537 14.3182 221.491 14.3182C216.503 14.3182 213.423 16.3636 213.446 20C213.423 22.75 215.207 24.5114 218.764 25.1364L221.855 25.6818C223.219 25.9318 223.832 26.2955 223.855 26.9545C223.832 27.6818 223.003 28.0909 221.855 28.0909C220.435 28.0909 219.435 27.4773 219.264 26.3636H213.037C213.378 29.9432 216.469 32.3182 221.81 32.3182C226.639 32.3182 230.196 29.9659 230.219 26.2273C230.196 23.6477 228.469 22.1477 224.901 21.5L221.355 20.8636C220.026 20.625 219.651 20.1477 219.673 19.6364C219.651 18.9091 220.548 18.5 221.628 18.5C222.866 18.5 223.901 19.1591 223.991 20.2273H229.764Z" fill="black"/>
</svg>
