<svg width="51" height="44" viewBox="0 0 51 44" fill="none" xmlns="http://www.w3.org/2000/svg">
<path fill-rule="evenodd" clip-rule="evenodd" d="M14.1386 36.13C13.3576 36.9111 13.3576 38.1774 14.1386 38.9585L14.1863 39.0061C17.1228 41.9427 20.9168 43.4991 24.7624 43.6755C26.3657 43.749 26.9849 41.8719 25.85 40.7369L19.1051 33.992C18.324 33.211 17.0577 33.211 16.2766 33.992L14.1386 36.13ZM36.741 36.2504C37.5221 37.0314 38.7884 37.0314 39.5695 36.2504L43.095 32.7248C43.876 31.9438 43.876 30.6775 43.095 29.8964L14.1036 0.905035C13.3225 0.123986 12.0562 0.123986 11.2752 0.905035L7.74965 4.43056C6.9686 5.2116 6.9686 6.47793 7.74965 7.25898L36.741 36.2504ZM3.26307 18.15C2.12811 17.0151 0.250973 17.6343 0.324515 19.2377C0.500896 23.0832 2.05736 26.8772 4.9939 29.8137L5.02394 29.8438C5.80499 30.6248 7.07132 30.6248 7.85237 29.8438L9.99037 27.7058C10.7714 26.9247 10.7714 25.6584 9.99037 24.8773L3.26307 18.15ZM44.1119 5.29208C43.8221 5.00235 43.4504 4.8086 43.047 4.73703L32.034 2.78345C31.9541 2.76929 31.8724 2.79501 31.8151 2.85233V2.85233C31.7182 2.94925 31.7182 3.1064 31.8151 3.20332L47.7378 19.126C48.8634 20.2516 50.7297 19.6531 50.6864 18.0619C50.579 14.1144 49.0188 10.1991 46.0061 7.18631L44.1119 5.29208Z" fill="white"/>
</svg>
